<?xml version="1.0" encoding="UTF-8" standalone="no"?>
<!-- Created with Inkscape (http://www.inkscape.org/) -->

<svg
   xmlns:dc="http://purl.org/dc/elements/1.1/"
   xmlns:cc="http://creativecommons.org/ns#"
   xmlns:rdf="http://www.w3.org/1999/02/22-rdf-syntax-ns#"
   xmlns:svg="http://www.w3.org/2000/svg"
   xmlns="http://www.w3.org/2000/svg"
   xmlns:sodipodi="http://sodipodi.sourceforge.net/DTD/sodipodi-0.dtd"
   xmlns:inkscape="http://www.inkscape.org/namespaces/inkscape"
   width="27mm"
   height="30mm"
   viewBox="0 0 27 30"
   version="1.1"
   id="svg220"
   inkscape:version="0.92.4 (5da689c313, 2019-01-14)"
   sodipodi:docname="bbq.svg">
  <defs
     id="defs214" />
  <sodipodi:namedview
     id="base"
     pagecolor="#ffffff"
     bordercolor="#666666"
     borderopacity="1.0"
     inkscape:pageopacity="0.0"
     inkscape:pageshadow="2"
     inkscape:zoom="2.1753846"
     inkscape:cx="85.665543"
     inkscape:cy="93.885226"
     inkscape:document-units="mm"
     inkscape:current-layer="g4650"
     showgrid="false"
     inkscape:window-width="1920"
     inkscape:window-height="1001"
     inkscape:window-x="-9"
     inkscape:window-y="-9"
     inkscape:window-maximized="1" />
  <metadata
     id="metadata217">
    <rdf:RDF>
      <cc:Work
         rdf:about="">
        <dc:format>image/svg+xml</dc:format>
        <dc:type
           rdf:resource="http://purl.org/dc/dcmitype/StillImage" />
        <dc:title></dc:title>
      </cc:Work>
    </rdf:RDF>
  </metadata>
  <g
     inkscape:label="Layer 1"
     inkscape:groupmode="layer"
     id="layer1"
     transform="translate(0,-267)">
    <g
       transform="matrix(0.26458333,0,0,0.26458333,-86.325175,48.858086)"
       id="g4650">
      <path
         inkscape:connector-curvature="0"
         class="st1"
         d="m 371.96053,907.75236 c 1.6,-5.3 0.2,-11.3 -4.1,-15.2 l 2.3,-3.1 8,6.1 4.7,-6.2 -8,-6.1 2.9,-3.9 9.9,7.5 c 1.6,-5.3 0.2,-11.3 -4.1,-15.2 l 2.1,-2.8 3.6,2.7 c 2.5,1.9 6.1,1.4 8,-1.1 l 0.5,-0.7 c 1.9,-2.5 1.4,-6.1 -1.1,-8 l -3.6,-2.7 7.9,-10.4 c 0.1,-0.1 0.2,-0.3 0.2,-0.4 3.7,2 8.5,1.1 11.2,-2.4 2.9,-3.9 2.2,-9.4 -1.7,-12.3 -3.9,-2.9 -9.4,-2.2 -12.3,1.7 -2.7,3.5 -2.3,8.3 0.7,11.4 -0.1,0.1 -0.2,0.2 -0.3,0.3 l -7.9,10.4 -3.6,-2.7 c -2.5,-1.9 -6.1,-1.4 -8,1.1 l -0.5,0.7 c -1.9,2.5 -1.4,6.1 1.1,8 l 3.6,2.7 -2.1,2.8 c -4.9,-3 -11,-2.8 -15.7,0.2 l 9.9,7.5 -2.9,3.9 -8,-6.1 -4.7,6.2 8,6.1 -2.3,3.1 c -4.9,-3 -11,-2.8 -15.7,0.2 l 9.9,7.5 -2.9,3.9 -3.6,-2.7 c -2.5,-1.9 -6.1,-1.4 -8,1.1 l -0.5,0.7 c -1.9,2.5 -1.4,6.1 1.1,8 l 3.6,2.7 -8.8,11.7 c -0.5,0.6 -0.4,1.5 0.3,2 0.6,0.5 1.5,0.4 2,-0.3 l 8.8,-11.7 3.6,2.7 c 2.5,1.9 6.1,1.4 8,-1.1 l 0.5,-0.7 c 1.9,-2.5 1.4,-6.1 -1.1,-8 l -3.6,-2.7 2.9,-3.9 z m 29.1,-70.4 c 1.9,-2.5 5.4,-2.9 7.8,-1.1 2.5,1.9 2.9,5.4 1.1,7.8 -1.9,2.5 -5.4,2.9 -7.8,1.1 -2.5,-1.8 -3,-5.4 -1.1,-7.8 z"
         id="path4576" />
    </g>
  </g>
</svg>
