<?xml version="1.0" encoding="UTF-8" standalone="no"?>
<!-- Created with Inkscape (http://www.inkscape.org/) -->

<svg
   xmlns:dc="http://purl.org/dc/elements/1.1/"
   xmlns:cc="http://creativecommons.org/ns#"
   xmlns:rdf="http://www.w3.org/1999/02/22-rdf-syntax-ns#"
   xmlns:svg="http://www.w3.org/2000/svg"
   xmlns="http://www.w3.org/2000/svg"
   xmlns:sodipodi="http://sodipodi.sourceforge.net/DTD/sodipodi-0.dtd"
   xmlns:inkscape="http://www.inkscape.org/namespaces/inkscape"
   width="27mm"
   height="30mm"
   viewBox="0 0 27 30"
   version="1.1"
   id="svg220"
   inkscape:version="0.92.4 (5da689c313, 2019-01-14)"
   sodipodi:docname="maincourse.svg">
  <defs
     id="defs214" />
  <sodipodi:namedview
     id="base"
     pagecolor="#ffffff"
     bordercolor="#666666"
     borderopacity="1.0"
     inkscape:pageopacity="0.0"
     inkscape:pageshadow="2"
     inkscape:zoom="2.1753846"
     inkscape:cx="85.665543"
     inkscape:cy="93.885226"
     inkscape:document-units="mm"
     inkscape:current-layer="layer1"
     showgrid="false"
     inkscape:window-width="1920"
     inkscape:window-height="1001"
     inkscape:window-x="-9"
     inkscape:window-y="-9"
     inkscape:window-maximized="1" />
  <metadata
     id="metadata217">
    <rdf:RDF>
      <cc:Work
         rdf:about="">
        <dc:format>image/svg+xml</dc:format>
        <dc:type
           rdf:resource="http://purl.org/dc/dcmitype/StillImage" />
        <dc:title></dc:title>
      </cc:Work>
    </rdf:RDF>
  </metadata>
  <g
     inkscape:label="Layer 1"
     inkscape:groupmode="layer"
     id="layer1"
     transform="translate(0,-267)">
    <g
       id="g4430"
       transform="matrix(0.26458333,0,0,0.2935419,-49.719137,25.132243)">
      <path
         class="st1"
         d="m 199.9,898.7 h 0.2 v 2.7 h 78.6 v -2.7 h 0.2 c 1.3,0 2.3,-1 2.3,-2.3 0,-1.3 -1,-2.3 -2.3,-2.3 h -0.1 C 277.4,875 262.6,858 243.7,855.7 c -0.4,-1.1 -1.2,-2.1 -2.2,-2.6 1.5,-0.8 2.5,-2.3 2.5,-4 0,-2.5 -2,-4.6 -4.6,-4.6 -2.5,0 -4.6,2 -4.6,4.6 0,1.8 1,3.3 2.5,4 -1,0.5 -1.9,1.5 -2.2,2.6 -18.8,2.3 -33.7,19.4 -35.1,38.4 h -0.1 c -1.3,0 -2.3,1 -2.3,2.3 0,1.3 1,2.3 2.3,2.3 z"
         id="path4426"
         inkscape:connector-curvature="0"
         style="fill:#282829" />
      <path
         class="st1"
         d="m 278.9,904.4 h -79 c -1.3,0 -2.3,1 -2.3,2.3 0,1.3 1,2.3 2.3,2.3 h 0.2 v 2.7 h 78.6 V 909 h 0.2 c 1.3,0 2.3,-1 2.3,-2.3 0,-1.2 -1,-2.3 -2.3,-2.3 z"
         id="path4428"
         inkscape:connector-curvature="0"
         style="fill:#282829" />
    </g>
  </g>
</svg>
